/* XPM */
static char *_6a42b444a8247dfc51334b2c2e1a93133kd8PWRJbND0xuF[] = {
/* columns rows colors chars-per-pixel */
"40 40 191 2 ",
"   c #3ee2fd",
".  c #020101",
"X  c #0A0605",
"o  c #0C0806",
"O  c #0D0909",
"+  c #130A06",
"@  c #130D0C",
"#  c #190E0C",
"$  c #16100F",
"%  c #1B110D",
"&  c #130E10",
"*  c #190F11",
"=  c #151112",
"-  c #1B1313",
";  c #1B161A",
":  c #1D191D",
">  c #230E0A",
",  c #23120C",
"<  c #2C150D",
"1  c #32170D",
"2  c #33190E",
"3  c #3A1A0C",
"4  c #221614",
"5  c #251915",
"6  c #2A1B14",
"7  c #201619",
"8  c #231A1B",
"9  c #2A1D1B",
"0  c #331C13",
"q  c #3E1E11",
"w  c #2E211E",
"e  c #2E221D",
"r  c #31221D",
"t  c #33251D",
"y  c #3C241B",
"u  c #1E1A20",
"i  c #231E22",
"p  c #281E20",
"a  c #2A2122",
"s  c #2D2122",
"d  c #2B2225",
"f  c #2D2428",
"g  c #332522",
"h  c #332524",
"j  c #352925",
"k  c #31272B",
"l  c #362929",
"z  c #362C2B",
"x  c #392B2A",
"c  c #3A2722",
"v  c #401D0D",
"b  c #431E10",
"n  c #4A1D1A",
"m  c #432212",
"M  c #482212",
"N  c #4D2C1B",
"B  c #402319",
"V  c #532B1B",
"C  c #4F2E21",
"Z  c #402C28",
"A  c #44332E",
"S  c #4F3626",
"D  c #5C3525",
"F  c #5F3828",
"G  c #53372A",
"H  c #423333",
"J  c #473B36",
"K  c #493937",
"L  c #513630",
"P  c #533C33",
"I  c #583A37",
"U  c #513D39",
"Y  c #633E2A",
"T  c #6C3336",
"R  c #5F453B",
"E  c #614436",
"W  c #6C4435",
"Q  c #734B3A",
"!  c #78503C",
"~  c #5F4E4B",
"^  c #684B48",
"/  c #664E47",
"(  c #6C544A",
")  c #7C5444",
"_  c #75594D",
"`  c #6F5951",
"'  c #785C56",
"]  c #796258",
"[  c #8A5E49",
"{  c #815A4A",
"}  c #8C4B55",
"|  c #865653",
" . c #925158",
".. c #876352",
"X. c #8B6553",
"o. c #89685C",
"O. c #946C5B",
"+. c #996A57",
"@. c #9C715F",
"#. c #856E6B",
"$. c #916D60",
"%. c #89706E",
"&. c #997363",
"*. c #9D7A6B",
"=. c #997368",
"-. c #846F70",
";. c #8D7671",
":. c #9C7E74",
">. c #977F79",
",. c #997D7C",
"<. c #927173",
"1. c #A46565",
"2. c #A27966",
"3. c #A37D6C",
"4. c #A37469",
"5. c #B36D7C",
"6. c #AA7278",
"7. c #B9777C",
"8. c #9D847C",
"9. c #AE806E",
"0. c #AF8779",
"q. c #AE8878",
"w. c #A38172",
"e. c #B28B7C",
"r. c #B98D7D",
"t. c #B7927F",
"y. c #B9917E",
"u. c #B87383",
"i. c #9B8890",
"p. c #AF8C81",
"a. c #BB838B",
"s. c #B49284",
"d. c #BC9685",
"f. c #BF9986",
"g. c #B3948D",
"h. c #B7988B",
"j. c #BE9B8C",
"k. c #BA9C94",
"l. c #C49E8C",
"z. c #CA8390",
"x. c #D0969D",
"c. c #C4A08F",
"v. c #C9A18D",
"b. c #C5A392",
"n. c #CAA393",
"m. c #C5A59B",
"M. c #CDAB99",
"N. c #CAA49B",
"B. c #D7AA90",
"V. c #D4AE9B",
"C. c #D8AE9B",
"Z. c #D7B29D",
"A. c #CE9FA5",
"S. c #D29CA1",
"D. c #CEAEA8",
"F. c #C6A8A4",
"G. c #D1AFA1",
"H. c #D4ABAB",
"J. c #CEB1A3",
"K. c #D4B3A4",
"L. c #DBB6A5",
"P. c #D9B8A7",
"I. c #D7B4A9",
"U. c #D9B7A9",
"Y. c #DBBAAC",
"T. c #D2BAAE",
"R. c #DFB7B1",
"E. c #DEBDB3",
"W. c #E1BDAC",
"Q. c #E2B7A3",
"!. c #E2BFB2",
"~. c #DEC0B4",
"^. c #E3C2B5",
"/. c #EAC5B6",
"(. c #E4C5BA",
"). c #E8C6B8",
"_. c #E7C9BC",
"`. c #EAC9BD",
"'. c #E7CDC1",
"]. c #EACDC3",
"[. c #EBC9C5",
"{. c #EDD3CB",
"}. c #EBD0C4",
"|. c #F2D2C7",
" X c #F0D3CD",
".X c #EFD7D2",
"XX c #EED8D3",
"oX c #EFDBD8",
"OX c #F0D7D1",
"+X c #F1D9D4",
"@X c #F2DDDB",
/* pixels */
"                                                                                ",
"                                  . X o X X X O X X .                           ",
"                              . . + % 6 6 5 9 r t w $ o .                       ",
"                          . X # % % 4 4 5 5 5 r j w t t # .                     ",
"                      . X # 6 9 6 5 ; 8 9 % 5 s j g x t x t $ .                 ",
"                    . X % 5 5 9 8 a 8 5 d - 5 5 e 6 e e j H x e X .             ",
"                  . O 5 h H x 9 a d a ; $ $ - % % # , 5 w w x g 9 X             ",
"                  X $ 9 p 9 - $ = - = $ # @ # + # , % % % 5 9 6 , 4 .           ",
"                . o % 5 8 ; @ O + O @ @ @ @ + # # % w - $ - 5 x l 6 X           ",
"                X # - 8 f = @ @ @ @ o O @ @ @ # + % e d $ $ 4 p 9 9 - .         ",
"              . + $ - - a & O = = & @ $ - - * @ $ $ + - - 7 7 - - - - X         ",
"            . X @ $ = = : O $ $ = = @ @ - * * - - % $ $ - p p 4 % $ 4 $ .       ",
"            . o @ @ = = & O $ $ 5 e A U U Z r h a 9 - = + @ * * - 7 l 4 o .     ",
"          . o + @ * = & & = $ , I _ s.K.T.D.k.>.;.>./ e - + * 8 p 8 x h % X     ",
"        . o @ @ @ = = = = - ; A *.j.K.Y._.'.{.{.].].(.m.] 4 @ = d d k 9 9 X     ",
"        . O @ @ @ = : : u ; 9 P e.c.K.~.'..XXX+XXXoX.X`.m.R # @ 8 i 9 - - .     ",
"        . X @ @ @ ; u i i e e E d.c.P.^.].XXoXoX@X@X@X+X/.e.0 @ - 4 - - $ .     ",
"        . O @ @ & ; u : : $ y ..d.M.P.).].XXoXoX@X@X@X+X].K.R $ + - # # + .     ",
"      . X = * $ @ : u : = % B X.j.K.Y.^.{.oX@X@X@X@X@XOX`.~./ $ @ = # % o       ",
"      . % - + @ & ; = O $ , 2 S G ( 8.T.].{.oX@X@X@X@XOX}.^.( # O = - - O .     ",
"      . . X @ @ # , + @ % < 0 E s.g.' L :.^.].{.{.XXXX{.`.Y.( - ; ; - = . .     ",
"          . - $ - , - @ < 3 1 6 j J -.:.{ s._.W.*.o.-.#.8.V._ $ = : i = .       ",
"          X # $ # , , # B ) C y / ~ i.<.$.&.].P.2.o.8.F.k.w.] - ; : i i .       ",
"        X # # # @ > , 1 N 2.l.e.O.j.F.D.o.&.`.^.*.I s H 8.V.` ; i u 7 8 O .     ",
"        X % % % + > , 1 M O.n.L.!.(.(.m.! q.].E.m.g.8.u.` J.` e 4 - 8 k p .     ",
"    . . $ % # % X + < 1 b ) n.Q.].{.'.*.W b.`.).[.E.E.Y.~.T.( t - - - ; f O     ",
"    . - - % X . . X 1 3 3 F y.Q.].{.U.W { P.`.).{.{.[.[./.W.G $ O - 8 i k O     ",
"    O = 4 + .     X 1 3 3 M 3.L.(._.&.O.) (.[.!.].+X+X{./.h.X   . @ 4 d p X     ",
"      X @ .       . % y 3 v +.C.!.0.V F W !.[.W.).}.+X|./.J     . . . = ; .     ",
"      . .           X v 3 v [ V.I.d.W 3 b &.r.r.^.^././.j..     .     X O .     ",
"                    . 2 M v [ L.p.4.n.p.s.H.{.|.).L.Q.Q.` .             .       ",
"                    . , M b ! Y.p.n T  .a.A.H.W.P.C.B.v.-                       ",
"                      X 3 M E M.K.| } z.u.u.5.6.N.Q.Z.E .                       ",
"                      . + M V y.V.j.4.1.7.x.x.[.`.^.b.O                         ",
"                        . , M [ M.P.L.E.Y.!.`.]._.K.k .                         ",
"                          . 1 D 3.K.~.].{.{.].'.Y.] .                           ",
"                            . + N 3.L.[.{.{.].U.~ .                             ",
"                                . 0 ..v.L.L.8.- .                               ",
"                                  . X r P t O                                   ",
"                                        .                                       "
};
