/* XPM */
static char *efc99cb07e6f494cabcacf8f93d82d9b1dMCJsMZ08yL9U93[] = {
/* columns rows colors chars-per-pixel */
"40 40 193 2 ",
"   c #3ee2fd",
".  c #020101",
"X  c #0A0605",
"o  c #0C0806",
"O  c #0D0909",
"+  c #130A06",
"@  c #130D0C",
"#  c #190E0C",
"$  c #16100F",
"%  c #1B110D",
"&  c #130E10",
"*  c #190F11",
"=  c #151112",
"-  c #1B1313",
";  c #1B161A",
":  c #1D191D",
">  c #230E0A",
",  c #23120C",
"<  c #2C150D",
"1  c #32170D",
"2  c #33190E",
"3  c #3A1A0D",
"4  c #221614",
"5  c #251915",
"6  c #2A1B14",
"7  c #231A1B",
"8  c #2A1D1B",
"9  c #201619",
"0  c #331C13",
"q  c #3E1E11",
"w  c #2E211E",
"e  c #2E221D",
"r  c #31221D",
"t  c #33251D",
"y  c #3C241B",
"u  c #1E1A20",
"i  c #231E22",
"p  c #281E20",
"a  c #2A2122",
"s  c #2D2122",
"d  c #2B2225",
"f  c #2D2428",
"g  c #332522",
"h  c #332524",
"j  c #352925",
"k  c #31272B",
"l  c #362929",
"z  c #362C2B",
"x  c #392B2A",
"c  c #3A2722",
"v  c #401D0D",
"b  c #441E11",
"n  c #432212",
"m  c #492314",
"M  c #4D2C1B",
"N  c #402319",
"B  c #532B1B",
"V  c #482D25",
"C  c #44332E",
"Z  c #4F3626",
"A  c #5C3525",
"S  c #5F3828",
"D  c #53372A",
"F  c #423333",
"G  c #473B36",
"H  c #493937",
"J  c #533C33",
"K  c #533A35",
"L  c #633E2A",
"P  c #5F453B",
"I  c #614436",
"U  c #6C4535",
"Y  c #764D3E",
"T  c #714935",
"R  c #78503C",
"E  c #5F4D4D",
"W  c #674D47",
"Q  c #6C544A",
"!  c #635149",
"~  c #7C5444",
"^  c #75594D",
"/  c #6F5951",
"(  c #785C56",
")  c #796258",
"_  c #A63E49",
"`  c #8A5E49",
"'  c #815A4A",
"]  c #99514C",
"[  c #A75D5D",
"{  c #A3565E",
"}  c #B4515C",
"|  c #876352",
" . c #8B6553",
".. c #89685C",
"X. c #946C5B",
"o. c #996A57",
"O. c #9C715F",
"+. c #A66A59",
"@. c #856E6B",
"#. c #916D60",
"$. c #89706E",
"%. c #997363",
"&. c #9D7A6B",
"*. c #997368",
"=. c #846F70",
"-. c #8D7671",
";. c #9C7E74",
":. c #977F79",
">. c #997D7C",
",. c #927173",
"<. c #A27966",
"1. c #A47D6A",
"2. c #BE6E75",
"3. c #BD7875",
"4. c #C05D6B",
"5. c #C86F78",
"6. c #C47078",
"7. c #9D847C",
"8. c #AD806E",
"9. c #AF8779",
"0. c #AE8878",
"q. c #A38172",
"w. c #B28C7C",
"e. c #BA8B7C",
"r. c #BC8576",
"t. c #B8927F",
"y. c #D47D86",
"u. c #D27E8A",
"i. c #9B8890",
"p. c #B29284",
"a. c #BA9583",
"s. c #B3948D",
"d. c #BE9C8D",
"f. c #BB9989",
"g. c #BA9C94",
"h. c #CB8A84",
"j. c #D4858B",
"k. c #C49E8C",
"l. c #C79083",
"z. c #D2988A",
"x. c #DF8892",
"c. c #E78B95",
"v. c #E2959D",
"b. c #CBA18D",
"n. c #C4A08F",
"m. c #DCA18F",
"M. c #C5A392",
"N. c #C5A59B",
"B. c #CEAB99",
"V. c #CCA592",
"C. c #DBA394",
"Z. c #D7A990",
"A. c #DBA996",
"S. c #D3AE9C",
"D. c #DBAC9A",
"F. c #D4A190",
"G. c #DBB19A",
"H. c #E3B29E",
"J. c #EBB29D",
"K. c #C8AAA5",
"L. c #D0AFA0",
"P. c #CEB1A3",
"I. c #D4B3A4",
"U. c #DBB5A4",
"Y. c #DBBBAC",
"T. c #D6B8AA",
"R. c #DEBDB3",
"E. c #E2A2A2",
"W. c #E9B3A2",
"Q. c #E4B9A5",
"!. c #EDB9A7",
"~. c #E3BDAC",
"^. c #E9B8A9",
"/. c #F1BEAB",
"(. c #E2BFB2",
"). c #DEC0B5",
"_. c #F0C0AE",
"`. c #E3C2B5",
"'. c #EAC5B6",
"]. c #E4C5BA",
"[. c #E7C9BC",
"{. c #EAC9BD",
"}. c #F4CBBA",
"|. c #E7CDC1",
" X c #EACEC3",
".X c #EDD3CB",
"XX c #F2D0C6",
"oX c #EFD7D2",
"OX c #EED8D3",
"+X c #EFDBD8",
"@X c #F1D9D4",
"#X c #F2DDDB",
"$X c #F0D7D1",
/* pixels */
"                                                                                ",
"                                  . X o X X X O X X .                           ",
"                              . . + % 6 6 5 8 r t w $ o .                       ",
"                          . X # % % 4 4 5 5 5 r j w t t # .                     ",
"                      . X # 6 8 6 5 ; 7 8 % 5 s j g x t x t $ .                 ",
"                    . X % 5 5 8 7 a 7 5 d - 5 5 e 6 e e j F x e X .             ",
"                  . O 5 h F x 8 a d a ; $ $ - % % # , 5 w w x g 8 X             ",
"                  X $ 8 p 8 - $ = - = $ # @ # + # , % % % 5 8 6 , 4 .           ",
"                . o % 5 7 ; @ O @ + @ @ @ + @ @ # % w - $ - 5 x l 6 X           ",
"                X # - 7 f = @ @ @ + o O @ @ # + + % e d $ $ 4 p 8 8 - .         ",
"              . + $ - - a & O = = & @ $ = - * # $ $ + - - 9 9 - - - - X         ",
"            . X @ $ = = : O $ $ = = $ @ - = - - - % $ $ - p p 4 % $ 4 $ .       ",
"            . o @ @ = = & O $ $ 7 8 C K K x g h a 8 - = + @ * * - 9 l 4 o .     ",
"          . o + @ * = & & = $ , J ^ p.T.T.P.g.>.-.:.W e - + * 7 p 7 x h % X     ",
"        . o @ @ @ = = = = - ; C &.k.I.Y.]. X.X.X X X].N.) 4 @ = d d k 8 8 X     ",
"        . O @ @ @ = : : u ; 8 J w.n.I.R.|.oXOX+XOX+XOX{.N.P # @ 7 i 8 - - .     ",
"        . X @ @ @ ; u i a 7 e I a.k.T.`. XOX+X#X#X#X#X@X'.0.r @ - - 4 - $ .     ",
"        . @ @ @ @ ; u : : - y | k.B.T.`. XoX+X#X#X#X#X@X XY.P # + - # # + .     ",
"      . X @ @ = & : u : = % N  .d.I.Y.`..X+X#X#X#X#X#X.X|.).W # @ = @ # X       ",
"      . - - + @ & ; = O $ , 0 Z D Q 7.T. X.X+X#X#X#X#X.X{.`.Q + @ = - - O .     ",
"      . . o @ @ @ , # O * < 2 I p.s.( K &.`. X.X.X.XOX.X{.`.Q % - ; ; * . .     ",
"          . - $ - , - @ < q 1 6 j G =.>.' p.{.Y.&.@.=.=.7.S.^ $ - : i = .       ",
"          X # $ # , , , N ~ M N W E i.,.X.%. XY.<.X.7.N.g.q.) $ ; ; i i .       ",
"        . # # # # > , < M <.k.w.X.d.K.P...%.{.R.*.K w F 7.I./ ; i : : i o .     ",
"        X % % % + > , 1 m X.V.T.`.].].N.Y 9. X(.N.s.>.>.( L./ p - - 7 k p X     ",
"    . . $ % # % X + < 1 b ~ b.Q. X.X X*.T k.{.]. X(.R.Y.(.(.Q q - - - ; f X     ",
"    . - - % X . . X 1 3 3 L e.U.|..XY.U ' Y.].]..X.X X|.].Y.K * & - 7 i f O     ",
"    O = 4 + .     X 1 3 3 n 1.U.].].#.X.~ ]..X(. X@X@X.X].f.X   . + 4 f p X     ",
"      X @ .       . % y 3 v o.D.`.0.B L U (.|.^.`. X@XXX'.G     . . . & - .     ",
"      . .           X v v 3 ` S.U.z.~ m m %.e.p.`.`.{.'.k..     .     X O .     ",
"                    . 3 n v ` U.F.^.C.z.j.E.^.}.'.U.Q.H./ .             .       ",
"                    . > n b R U.D.l.2.u.y.c.v.W._.D.Z.b.-                       ",
"                      X 3 m L B.H.r.{ 4.] } 5.h.!.!.G.H .                       ",
"                      . + m B t.H.r.2.c.c.c.j.l./.^.M.@                         ",
"                        . , m  .Z.r.[ 5.y.y.6.m._.T.j .                         ",
"                          . < A q.z.+.] ] } 3.J.Q.) .                           ",
"                            . + M 8.A.C.z.m.J.U.! .                             ",
"                                . 0 | n.U.U.;.- .                               ",
"                                  . X r I e O                                   ",
"                                        .                                       "
};
