/* XPM */
static char *_4c1705c99294b27de86417fcf4fcb09SirMVrRk7nrZYUW6[] = {
/* columns rows colors chars-per-pixel */
"40 40 216 2 ",
"   c #3ee2fd",
".  c #030302",
"X  c #0A0706",
"o  c #0B0807",
"O  c #0C0A09",
"+  c #120E0C",
"@  c #180A09",
"#  c #1D110C",
"$  c #13100C",
"%  c #1D1512",
"&  c #171211",
"*  c #24130C",
"=  c #2A150D",
"-  c #32130E",
";  c #351A0C",
":  c #2D1610",
">  c #221A15",
",  c #251D19",
"<  c #2B1E1B",
"1  c #261713",
"2  c #341610",
"3  c #321A15",
"4  c #3B1A12",
"5  c #3A220E",
"6  c #2C211D",
"7  c #39231A",
"8  c #2C2621",
"9  c #342721",
"0  c #3B2B24",
"q  c #3A2A26",
"w  c #3E322C",
"e  c #441C15",
"r  c #461915",
"t  c #4B270E",
"y  c #4B211B",
"u  c #47271E",
"i  c #54241B",
"p  c #52291E",
"a  c #462A22",
"s  c #4C2D26",
"d  c #5E2B21",
"f  c #45332D",
"g  c #4C342D",
"h  c #44382C",
"j  c #5A352D",
"k  c #553628",
"l  c #4B3630",
"z  c #433933",
"x  c #4D3B33",
"c  c #4A3E38",
"v  c #533631",
"b  c #543A32",
"n  c #5C3C34",
"m  c #573E39",
"M  c #5A3B35",
"N  c #613C2E",
"B  c #68382A",
"V  c #743D32",
"C  c #703A28",
"Z  c #4D433D",
"A  c #47413C",
"S  c #53453A",
"D  c #5B433B",
"F  c #5D4A3A",
"G  c #5E4236",
"H  c #654435",
"J  c #63463B",
"K  c #654A3E",
"L  c #6A463C",
"P  c #734433",
"I  c #7E4030",
"U  c #77433A",
"Y  c #724A3C",
"T  c #7C4C3C",
"R  c #514943",
"E  c #5D4A44",
"W  c #584D48",
"Q  c #634C43",
"!  c #6C4D43",
"~  c #654744",
"^  c #734F42",
"/  c #6C5244",
"(  c #6B564D",
")  c #745445",
"_  c #7C5344",
"`  c #725549",
"'  c #74594C",
"]  c #7A5A4B",
"[  c #6E5A52",
"{  c #745F57",
"}  c #7C5D51",
"|  c #755F58",
" . c #7C6153",
".. c #7F685A",
"X. c #776358",
"o. c #7A6C62",
"O. c #844533",
"+. c #8B4D3B",
"@. c #84523F",
"#. c #835645",
"$. c #8A5946",
"%. c #8D5749",
"&. c #855D4C",
"*. c #8C5A4A",
"=. c #935A48",
"-. c #825F54",
";. c #9C5D50",
":. c #A05F51",
">. c #82624F",
",. c #8C634F",
"<. c #9A614F",
"1. c #96634D",
"2. c #846553",
"3. c #8B6253",
"4. c #8D6A58",
"5. c #866958",
"6. c #936552",
"7. c #966C56",
"8. c #9C6955",
"9. c #956D5B",
"0. c #9C6C5A",
"q. c #9C6352",
"w. c #9C745D",
"e. c #907157",
"r. c #A3604D",
"t. c #A76952",
"y. c #A56D5B",
"u. c #A8665A",
"i. c #A5715A",
"p. c #AB715C",
"a. c #AB785F",
"s. c #866F63",
"d. c #887869",
"f. c #977C69",
"g. c #877B70",
"h. c #9B7C71",
"j. c #A86F60",
"k. c #A27762",
"l. c #AA7660",
"z. c #A47A63",
"x. c #AA7B63",
"c. c #AB7E69",
"v. c #A17B6A",
"b. c #B27660",
"n. c #B47C64",
"m. c #BA7C65",
"M. c #B17E69",
"N. c #BE7C6E",
"B. c #B87763",
"V. c #B76F67",
"C. c #938273",
"Z. c #AC816C",
"A. c #B28066",
"S. c #B4846C",
"D. c #BB836B",
"F. c #B7896D",
"G. c #BB8A6E",
"H. c #A68073",
"J. c #AD8972",
"K. c #A68975",
"L. c #B48670",
"P. c #BB8770",
"I. c #B48A73",
"U. c #BB8C74",
"Y. c #B98D78",
"T. c #BA947B",
"R. c #C4866E",
"E. c #C28A6F",
"W. c #C18670",
"Q. c #C38D74",
"!. c #CA8C73",
"~. c #CA8F7A",
"^. c #C38D78",
"/. c #C49175",
"(. c #C89176",
"). c #C59279",
"_. c #CC957B",
"`. c #CD997C",
"'. c #C7987A",
"]. c #D2957D",
"[. c #D29A7D",
"{. c #D8967D",
"}. c #AF9E8C",
"|. c #B19885",
" X c #B9A18C",
".X c #B4A290",
"XX c #CD9D84",
"oX c #C49B81",
"OX c #D39C83",
"+X c #DA9C83",
"@X c #D39A86",
"#X c #CAA086",
"$X c #C5A58D",
"%X c #CEA488",
"&X c #D4A185",
"*X c #DAA286",
"=X c #D5A38B",
"-X c #DCA58B",
";X c #DCA88C",
":X c #DBA792",
">X c #DDAB94",
",X c #DDAF99",
"<X c #D5A890",
"1X c #C6A790",
"2X c #E0AA8D",
"3X c #E0A78B",
"4X c #E2AC93",
"5X c #E2AF98",
"6X c #E3B39B",
"7X c #E7B39B",
"8X c #DFB5A0",
"9X c #E6BAA3",
"0X c #EABDA7",
"qX c #E9BFAA",
"wX c #EAC0AA",
"eX c #ECC6B0",
/* pixels */
"                                    . . X .                                     ",
"                              . 6 0 / ] >. .F h % X                             ",
"                        . % F 2.e.w.a.Z.c.z.9.4.5.) 6 .                         ",
"                      X F e.w.A.G.F.F.F.U.P.x.w.9.5./ h X                       ",
"                    O F 2.Z.`.%X&X[.OX`.`.!.W.P.U.L.h.5.x X                     ",
"                  . K ..T.`.<X2X*X*X+X*X*XOX[.(.~.oXY.h.s.c .                   ",
"                . S C.T.`.%X2X[.-X3X*X*X-X*X+X_.@X~.P.c.h.s.S X                 ",
"                o C.K.%X%X[.2X[.;X;X3X3X2X2X+X@XXX(.L.c.f.s.[ w                 ",
"                c K. X%X[.2X;X2X5X6X7X7X,X5X>X=X+X_.F.c.z.....[ O               ",
"              . [ }.1X#X[.[.[.6X7XeXwXqX9X6X6X=X=X'.S.x.k.} s.o.8 .             ",
"              + C..X1X`.`.[.;X4X0XeX0X9X9X6X6X=XXXQ.S.S.k. .s.g.z .             ",
"              6 C..X$X'.[.[.;X2X6X6X7X5X5X>X>X=XXX^.S.F.f.X.5.o.z .             ",
"            . w C.|././.`.[.3X2X4X7X7X7X>X6X,X+X_.^.S.F.w.] ' X.A .             ",
"            X S C.J./.'.[.[.[.3X2X4X7X0X>X9X0XXX^.S.D.D.8.) ( ( R X             ",
"            + J  .J./.'.[.*X=X>X,X>X;X-XOX=X>XD.c.c.F.D.0.] Q Q R X             ",
"          . =.Q.] J.T./.Z.Y H P P H H ) z.L.x.) k s a a a f E D R 6 .           ",
"          . r.A.2.>.Y.S.r 2 2 t t 5 * * K 7.H 5 * * * * * = < D W g @           ",
"          . b.XXw.f.} ` i 4 * * t ; * * G 8.k t * # # # # # * Z S v @           ",
"            _ !.i.x.M.$.C y 2 - = - ; : T =XG u = = * * * = < D g M X           ",
"            q `.T.Z.Y.S.C d i r r r t p F.>XY s 4 ; - : 3 3 0 Q s j .           ",
"            % ;X&XZ.A.).M.+.O.O.V I +.p.4X5X6.1.V s y e y a m E v q             ",
"            X I.&XJ.a.U.XXb.t.t.b.p.(.[.5X>X0.6.W.;.V B j n m E M 1             ",
"              ' '.Z.x.D._.+X:X6X3X+X{.OX:X>Xc.*._.].^.S.6.! D E m .             ",
"              , #XS.A.A.(.+X+X-X+X{.{.=X>X8XL.9.m.!.N.M.6.! m m <               ",
"                o >.G.S.Q.`.].+X+X].W.q.S.S.6.n =.W.B.y.3.! m q .               ",
"                  x G.x.G.!.].+X+X5X-Xj.#.U g s U N.B.y.&.J f .                 ",
"                  0 G.F.n.E.!.].:X:X<X<XY.&.^ L j.N.b.y._ D q                   ",
"                  6 /.F.U.F.(.(.).^.oXXXY.L.c.v.x.l.8.,.) D ,                   ",
"                  O T.S.'.F.E.a.#.$.;.;.:.p.%.#.H H Y _ ~ D +                   ",
"                  . 4.F.E.G.G.p.N.E.B.N.V.:.%.V j n T #.D v .                   ",
"                    7 z.A.F.A.R.R.!.n.=.U V T $.1.q.1.Y b +                     ",
"                    O ' 7.a.a.n.!.[.`.[.OX].R.n.i.8.#.n %                       ",
"                      . 9 K >.6.D.~.XX@X@XR.N.M.0._ M <                         ",
"                          . w / } 8.y.y.y.u.q.%.L l f X                         ",
"                            . & E { [ [ ( ~ M v l f q .                         ",
"                                X z | X.[ ~ m v l l >                           ",
"                                  . & b J K G b l l X                           ",
"                                      . % l G b l 6                             ",
"                                          . 7 l % .                             ",
"                                            . .                                 "
};
